<mxfile host="app.diagrams.net" agent="Mozilla/5.0 (X11; Linux x86_64; rv:141.0) Gecko/20100101 Firefox/141.0" version="28.1.1">
  <diagram name="Page-1" id="BJdrOQS9gD8skISKJy_k">
    <mxGraphModel dx="1386" dy="792" grid="1" gridSize="10" guides="1" tooltips="1" connect="1" arrows="1" fold="1" page="1" pageScale="1" pageWidth="827" pageHeight="1169" math="0" shadow="0">
      <root>
        <mxCell id="0" />
        <mxCell id="1" parent="0" />
        <mxCell id="8zQ-2a_tSk9fb6e0F6VV-14" value="" style="endArrow=none;html=1;rounded=0;strokeColor=default;align=center;verticalAlign=middle;fontFamily=Helvetica;fontSize=12;fontColor=default;labelBackgroundColor=none;startSize=5;endSize=5;entryX=0.5;entryY=1;entryDx=0;entryDy=0;opacity=50;dashed=1;" edge="1" parent="1">
          <mxGeometry width="50" height="50" relative="1" as="geometry">
            <mxPoint x="360" y="700" as="sourcePoint" />
            <mxPoint x="360" y="130" as="targetPoint" />
          </mxGeometry>
        </mxCell>
        <mxCell id="8zQ-2a_tSk9fb6e0F6VV-2" value="" style="endArrow=none;html=1;rounded=0;strokeColor=default;align=center;verticalAlign=middle;fontFamily=Helvetica;fontSize=12;fontColor=default;labelBackgroundColor=none;startSize=5;endSize=5;entryX=0.5;entryY=1;entryDx=0;entryDy=0;opacity=50;dashed=1;" edge="1" parent="1" target="8zQ-2a_tSk9fb6e0F6VV-4">
          <mxGeometry width="50" height="50" relative="1" as="geometry">
            <mxPoint x="520" y="700" as="sourcePoint" />
            <mxPoint x="519.66" y="148.8" as="targetPoint" />
          </mxGeometry>
        </mxCell>
        <mxCell id="8zQ-2a_tSk9fb6e0F6VV-37" style="edgeStyle=none;shape=connector;rounded=0;orthogonalLoop=1;jettySize=auto;html=1;strokeColor=default;align=center;verticalAlign=middle;fontFamily=Helvetica;fontSize=11;fontColor=default;labelBackgroundColor=default;startSize=5;endArrow=none;endSize=5;endFill=0;" edge="1" parent="1" source="8zQ-2a_tSk9fb6e0F6VV-3">
          <mxGeometry relative="1" as="geometry">
            <mxPoint x="680" y="270" as="targetPoint" />
          </mxGeometry>
        </mxCell>
        <mxCell id="8zQ-2a_tSk9fb6e0F6VV-3" value="&lt;font face=&quot;Inter&quot;&gt;Determinar dirección del giro&lt;/font&gt;" style="rounded=0;whiteSpace=wrap;html=1;" vertex="1" parent="1">
          <mxGeometry x="460" y="250" width="120" height="40" as="geometry" />
        </mxCell>
        <mxCell id="8zQ-2a_tSk9fb6e0F6VV-4" value="&lt;font face=&quot;Inter&quot;&gt;rotary_control&lt;/font&gt;" style="text;html=1;align=center;verticalAlign=middle;whiteSpace=wrap;rounded=0;fontFamily=Helvetica;fontSize=12;fontColor=default;labelBackgroundColor=none;" vertex="1" parent="1">
          <mxGeometry x="460" y="100" width="120" height="40" as="geometry" />
        </mxCell>
        <mxCell id="8zQ-2a_tSk9fb6e0F6VV-5" value="" style="endArrow=none;html=1;rounded=0;strokeColor=default;align=center;verticalAlign=middle;fontFamily=Helvetica;fontSize=12;fontColor=default;labelBackgroundColor=none;startSize=5;endSize=5;entryX=0.5;entryY=1;entryDx=0;entryDy=0;opacity=50;dashed=1;" edge="1" parent="1" target="8zQ-2a_tSk9fb6e0F6VV-7">
          <mxGeometry width="50" height="50" relative="1" as="geometry">
            <mxPoint x="200" y="700" as="sourcePoint" />
            <mxPoint x="199.65999999999997" y="148.8" as="targetPoint" />
          </mxGeometry>
        </mxCell>
        <mxCell id="8zQ-2a_tSk9fb6e0F6VV-7" value="&lt;font face=&quot;Inter&quot;&gt;PWM_BOX&lt;/font&gt;" style="text;html=1;align=center;verticalAlign=middle;whiteSpace=wrap;rounded=0;fontFamily=Helvetica;fontSize=12;fontColor=default;labelBackgroundColor=none;" vertex="1" parent="1">
          <mxGeometry x="140" y="100" width="120" height="40" as="geometry" />
        </mxCell>
        <mxCell id="8zQ-2a_tSk9fb6e0F6VV-35" style="edgeStyle=none;shape=connector;rounded=0;orthogonalLoop=1;jettySize=auto;html=1;strokeColor=default;align=center;verticalAlign=middle;fontFamily=Helvetica;fontSize=11;fontColor=default;labelBackgroundColor=default;startSize=5;endArrow=none;endSize=5;exitX=0.5;exitY=1;exitDx=0;exitDy=0;endFill=0;" edge="1" parent="1" source="8zQ-2a_tSk9fb6e0F6VV-10">
          <mxGeometry relative="1" as="geometry">
            <mxPoint x="520" y="640" as="targetPoint" />
          </mxGeometry>
        </mxCell>
        <mxCell id="8zQ-2a_tSk9fb6e0F6VV-10" value="&lt;font face=&quot;Inter&quot;&gt;Detectar pulsación&lt;/font&gt;" style="rounded=0;whiteSpace=wrap;html=1;" vertex="1" parent="1">
          <mxGeometry x="460" y="410" width="120" height="40" as="geometry" />
        </mxCell>
        <mxCell id="8zQ-2a_tSk9fb6e0F6VV-27" style="edgeStyle=none;shape=connector;rounded=0;orthogonalLoop=1;jettySize=auto;html=1;entryX=0;entryY=0.5;entryDx=0;entryDy=0;strokeColor=default;align=center;verticalAlign=middle;fontFamily=Helvetica;fontSize=11;fontColor=default;labelBackgroundColor=default;startSize=5;endArrow=classic;endSize=5;exitX=1;exitY=0.5;exitDx=0;exitDy=0;" edge="1" parent="1" source="8zQ-2a_tSk9fb6e0F6VV-11" target="8zQ-2a_tSk9fb6e0F6VV-24">
          <mxGeometry relative="1" as="geometry" />
        </mxCell>
        <mxCell id="8zQ-2a_tSk9fb6e0F6VV-11" value="&lt;div&gt;Interrupción&lt;/div&gt;&lt;div&gt;TIMER&lt;/div&gt;" style="rounded=0;whiteSpace=wrap;html=1;" vertex="1" parent="1">
          <mxGeometry x="140" y="170" width="120" height="40" as="geometry" />
        </mxCell>
        <mxCell id="8zQ-2a_tSk9fb6e0F6VV-36" style="edgeStyle=none;shape=connector;rounded=0;orthogonalLoop=1;jettySize=auto;html=1;strokeColor=default;align=center;verticalAlign=middle;fontFamily=Helvetica;fontSize=11;fontColor=default;labelBackgroundColor=default;startSize=5;endArrow=none;endSize=5;exitX=0.5;exitY=1;exitDx=0;exitDy=0;endFill=0;" edge="1" parent="1" source="8zQ-2a_tSk9fb6e0F6VV-12">
          <mxGeometry relative="1" as="geometry">
            <mxPoint x="360" y="640" as="targetPoint" />
          </mxGeometry>
        </mxCell>
        <mxCell id="8zQ-2a_tSk9fb6e0F6VV-12" value="&lt;font face=&quot;Inter&quot;&gt;Mensaje recibido&lt;/font&gt;" style="rounded=0;whiteSpace=wrap;html=1;" vertex="1" parent="1">
          <mxGeometry x="300" y="490" width="120" height="40" as="geometry" />
        </mxCell>
        <mxCell id="8zQ-2a_tSk9fb6e0F6VV-16" value="&lt;font face=&quot;Inter&quot;&gt;serial_control&lt;/font&gt;" style="text;html=1;align=center;verticalAlign=middle;whiteSpace=wrap;rounded=0;fontFamily=Helvetica;fontSize=12;fontColor=default;labelBackgroundColor=none;" vertex="1" parent="1">
          <mxGeometry x="300" y="100" width="120" height="40" as="geometry" />
        </mxCell>
        <mxCell id="8zQ-2a_tSk9fb6e0F6VV-30" style="edgeStyle=none;shape=connector;rounded=0;orthogonalLoop=1;jettySize=auto;html=1;entryX=0;entryY=0.5;entryDx=0;entryDy=0;strokeColor=default;align=center;verticalAlign=middle;fontFamily=Helvetica;fontSize=11;fontColor=default;labelBackgroundColor=default;startSize=5;endArrow=classic;endSize=5;exitX=1;exitY=0.5;exitDx=0;exitDy=0;" edge="1" parent="1" source="8zQ-2a_tSk9fb6e0F6VV-19" target="8zQ-2a_tSk9fb6e0F6VV-3">
          <mxGeometry relative="1" as="geometry" />
        </mxCell>
        <mxCell id="8zQ-2a_tSk9fb6e0F6VV-19" value="Interrupción 1" style="rounded=0;whiteSpace=wrap;html=1;" vertex="1" parent="1">
          <mxGeometry x="140" y="250" width="120" height="40" as="geometry" />
        </mxCell>
        <mxCell id="8zQ-2a_tSk9fb6e0F6VV-32" style="edgeStyle=none;shape=connector;rounded=0;orthogonalLoop=1;jettySize=auto;html=1;entryX=0;entryY=0.5;entryDx=0;entryDy=0;strokeColor=default;align=center;verticalAlign=middle;fontFamily=Helvetica;fontSize=11;fontColor=default;labelBackgroundColor=default;startSize=5;endArrow=classic;endSize=5;exitX=1;exitY=0.5;exitDx=0;exitDy=0;" edge="1" parent="1" source="8zQ-2a_tSk9fb6e0F6VV-20" target="8zQ-2a_tSk9fb6e0F6VV-10">
          <mxGeometry relative="1" as="geometry" />
        </mxCell>
        <mxCell id="8zQ-2a_tSk9fb6e0F6VV-20" value="Interrupción 2" style="rounded=0;whiteSpace=wrap;html=1;" vertex="1" parent="1">
          <mxGeometry x="140" y="410" width="120" height="40" as="geometry" />
        </mxCell>
        <mxCell id="8zQ-2a_tSk9fb6e0F6VV-31" style="edgeStyle=none;shape=connector;rounded=0;orthogonalLoop=1;jettySize=auto;html=1;entryX=0;entryY=0.5;entryDx=0;entryDy=0;strokeColor=default;align=center;verticalAlign=middle;fontFamily=Helvetica;fontSize=11;fontColor=default;labelBackgroundColor=default;startSize=5;endArrow=classic;endSize=5;exitX=1;exitY=0.5;exitDx=0;exitDy=0;" edge="1" parent="1" source="8zQ-2a_tSk9fb6e0F6VV-21" target="8zQ-2a_tSk9fb6e0F6VV-3">
          <mxGeometry relative="1" as="geometry" />
        </mxCell>
        <mxCell id="8zQ-2a_tSk9fb6e0F6VV-21" value="Interrupción 3" style="rounded=0;whiteSpace=wrap;html=1;" vertex="1" parent="1">
          <mxGeometry x="140" y="330" width="120" height="40" as="geometry" />
        </mxCell>
        <mxCell id="8zQ-2a_tSk9fb6e0F6VV-22" value="Añadir evento correspondiente a la cola" style="rounded=0;whiteSpace=wrap;html=1;" vertex="1" parent="1">
          <mxGeometry x="140" y="610" width="120" height="60" as="geometry" />
        </mxCell>
        <mxCell id="8zQ-2a_tSk9fb6e0F6VV-23" value="" style="endArrow=none;html=1;rounded=0;strokeColor=default;align=center;verticalAlign=middle;fontFamily=Helvetica;fontSize=12;fontColor=default;labelBackgroundColor=none;startSize=5;endSize=5;entryX=0.5;entryY=1;entryDx=0;entryDy=0;opacity=50;dashed=1;" edge="1" parent="1" target="8zQ-2a_tSk9fb6e0F6VV-25">
          <mxGeometry width="50" height="50" relative="1" as="geometry">
            <mxPoint x="680" y="700" as="sourcePoint" />
            <mxPoint x="679.66" y="148.8" as="targetPoint" />
          </mxGeometry>
        </mxCell>
        <mxCell id="8zQ-2a_tSk9fb6e0F6VV-34" style="edgeStyle=none;shape=connector;rounded=0;orthogonalLoop=1;jettySize=auto;html=1;entryX=1;entryY=0.5;entryDx=0;entryDy=0;strokeColor=default;align=center;verticalAlign=middle;fontFamily=Helvetica;fontSize=11;fontColor=default;labelBackgroundColor=default;startSize=5;endArrow=classic;endSize=5;" edge="1" parent="1" source="8zQ-2a_tSk9fb6e0F6VV-24" target="8zQ-2a_tSk9fb6e0F6VV-22">
          <mxGeometry relative="1" as="geometry">
            <Array as="points">
              <mxPoint x="680" y="640" />
            </Array>
          </mxGeometry>
        </mxCell>
        <mxCell id="8zQ-2a_tSk9fb6e0F6VV-24" value="&lt;font face=&quot;Inter&quot;&gt;Actualizar señales PWM&lt;/font&gt;" style="rounded=0;whiteSpace=wrap;html=1;" vertex="1" parent="1">
          <mxGeometry x="620" y="170" width="120" height="40" as="geometry" />
        </mxCell>
        <mxCell id="8zQ-2a_tSk9fb6e0F6VV-25" value="&lt;font face=&quot;Inter&quot;&gt;pwm_gen&lt;/font&gt;" style="text;html=1;align=center;verticalAlign=middle;whiteSpace=wrap;rounded=0;fontFamily=Helvetica;fontSize=12;fontColor=default;labelBackgroundColor=none;" vertex="1" parent="1">
          <mxGeometry x="620" y="100" width="120" height="40" as="geometry" />
        </mxCell>
        <mxCell id="8zQ-2a_tSk9fb6e0F6VV-33" style="edgeStyle=none;shape=connector;rounded=0;orthogonalLoop=1;jettySize=auto;html=1;entryX=0;entryY=0.5;entryDx=0;entryDy=0;strokeColor=default;align=center;verticalAlign=middle;fontFamily=Helvetica;fontSize=11;fontColor=default;labelBackgroundColor=default;startSize=5;endArrow=classic;endSize=5;" edge="1" parent="1" source="8zQ-2a_tSk9fb6e0F6VV-29" target="8zQ-2a_tSk9fb6e0F6VV-12">
          <mxGeometry relative="1" as="geometry" />
        </mxCell>
        <mxCell id="8zQ-2a_tSk9fb6e0F6VV-29" value="&lt;div&gt;Interrupción&lt;/div&gt;&lt;div&gt;USART0&lt;/div&gt;" style="rounded=0;whiteSpace=wrap;html=1;" vertex="1" parent="1">
          <mxGeometry x="140" y="490" width="120" height="40" as="geometry" />
        </mxCell>
      </root>
    </mxGraphModel>
  </diagram>
</mxfile>
